# xmcd CD database file
# Copyright (C) 1993-1998 Ti Kan
# 
# Track frame offsets:
#     150
#     23775
#     38263
#     52133
#     74600
#     94935
#     121743
#     156360
#     169120
#     181285
#     197745
#     217213
#     234468
# 
# Disc length: 3338 seconds
# 
# Revision: 1
# Processed by: cddbd v1.4b41PL1 Copyright (c) Steve Scherf et al.
# Submitted via: DiscPlay 4.0.4
# 
DISCID=b60d080d
DTITLE=Stevie Ray Vaughan And Double Trouble - Hommage To the Blues
DYEAR=1900
DGENRE=
TTITLE0=Instrumental Warm Up
TTITLE1=Tribute To Elmore James
TTITLE2=They Call Me
TTITLE3=Sky Is Crying
TTITLE4=I'm Leaving You
TTITLE5=All Your Love
TTITLE6=Tin Pan Alley
TTITLE7=Love Struck Baby
TTITLE8=Tell Me
TTITLE9=Lady Jane
TTITLE10=Little Wing
TTITLE11=Double Trouble Boogie
TTITLE12=I'm Crying
EXTD=
EXTT0=
EXTT1=
EXTT2=
EXTT3=
EXTT4=
EXTT5=
EXTT6=
EXTT7=
EXTT8=
EXTT9=
EXTT10=
EXTT11=
EXTT12=
PLAYORDER=
